<svg xmlns="http://www.w3.org/2000/svg" fill="none" viewBox="0 0 22 22">
    <path fill="#5B88FC" d="M 11.5,18.788687 C 9.2628645,14.634721 4.7885936,9.4422626 3.670026,9.4422626 c 3.3557031,-4.1539661 0,0 3.3557031,-4.1539661 0,3.1154747 2.2371354,4.1539661 4.4742709,7.2694405 2.237135,-3.1154744 4.474271,-4.1539658 4.474271,-7.2694405 3.355703,4.1539661 0,0 3.355703,4.1539661 -1.118568,0 -5.592839,5.1924584 -7.829974,9.3464244 m 0,-9.3464244 c 1.118568,-1.0384914 2.237135,-2.076983 3.355703,-5.1924577 L 13.737135,3.2113134 C 12.618568,6.326788 11.5,6.326788 11.5,7.3652796 11.5,6.326788 10.381432,6.326788 9.2628645,3.2113134 L 8.1442968,4.2498049 C 9.2628645,7.3652796 10.381432,8.4037712 11.5,9.4422626 Z"></path>
</svg>
