<svg width="512" height="512" viewBox="0 0 512 512" fill="none" xmlns="http://www.w3.org/2000/svg">
<path d="M256 427.295C204.695 336.204 102.085 222.341 76.4326 222.341C153.39 131.251 76.4326 222.341 153.39 131.251C153.39 199.568 204.695 222.341 256 290.659C307.305 222.341 358.61 199.568 358.61 131.251C435.567 222.341 358.61 131.251 435.567 222.341C409.915 222.341 307.305 336.204 256 427.295ZM256 227.808C281.653 205.036 307.305 176.796 332.958 108.478L307.305 85.7052C281.653 154.023 267 166.121 256 176.796C244.5 166.121 230.348 154.023 204.695 85.7052L179.043 108.478C204.695 176.796 230.348 205.036 256 227.808Z" fill="#5B88FC"/>
</svg>
