<svg width="1427" height="512" viewBox="0 0 1427 512" fill="none" xmlns="http://www.w3.org/2000/svg">
<g clip-path="url(#clip0_2_6)">
<path d="M260 427.295C208.695 336.204 106.085 222.341 80.4326 222.341C157.39 131.251 80.4326 222.341 157.39 131.251C157.39 199.568 208.695 222.341 260 290.659C311.305 222.341 362.61 199.568 362.61 131.251C439.567 222.341 362.61 131.251 439.567 222.341C413.915 222.341 311.305 336.204 260 427.295ZM260 227.808C285.653 205.036 311.305 176.796 336.957 108.478L311.305 85.7052C285.653 154.023 271 166.121 260 176.796C248.5 166.121 234.348 154.023 208.695 85.7052L183.043 108.478C208.695 176.796 234.348 205.036 260 227.808Z" fill="#242121"/>
<path d="M517.526 175.545L559.545 302.628H561.2L603.141 175.545H635.305L578.386 337H542.28L485.44 175.545H517.526ZM695.91 339.365C683.769 339.365 673.284 336.842 664.455 331.797C655.678 326.699 648.924 319.499 644.194 310.196C639.464 300.841 637.099 289.83 637.099 277.164C637.099 264.708 639.464 253.776 644.194 244.369C648.977 234.908 655.651 227.55 664.218 222.295C672.785 216.987 682.85 214.332 694.412 214.332C701.875 214.332 708.918 215.541 715.54 217.959C722.215 220.324 728.101 224.003 733.199 228.996C738.35 233.989 742.396 240.348 745.34 248.074C748.283 255.747 749.754 264.892 749.754 275.509V284.259H650.501V265.023H722.399C722.346 259.558 721.164 254.696 718.851 250.439C716.539 246.129 713.306 242.739 709.154 240.269C705.055 237.799 700.272 236.564 694.806 236.564C688.972 236.564 683.848 237.983 679.433 240.821C675.019 243.607 671.576 247.286 669.106 251.858C666.688 256.378 665.453 261.344 665.401 266.758V283.55C665.401 290.592 666.688 296.636 669.264 301.682C671.839 306.675 675.439 310.511 680.064 313.192C684.689 315.82 690.102 317.134 696.304 317.134C700.456 317.134 704.214 316.555 707.578 315.399C710.941 314.19 713.858 312.43 716.328 310.117C718.798 307.805 720.664 304.94 721.926 301.524L748.572 304.52C746.89 311.562 743.684 317.712 738.954 322.967C734.276 328.17 728.285 332.217 720.98 335.108C713.674 337.946 705.318 339.365 695.91 339.365ZM802.436 175.545V337H773.898V175.545H802.436ZM884.602 339.365C872.777 339.365 862.528 336.763 853.856 331.56C845.184 326.357 838.457 319.078 833.675 309.723C828.944 300.368 826.579 289.436 826.579 276.928C826.579 264.419 828.944 253.461 833.675 244.053C838.457 234.646 845.184 227.34 853.856 222.137C862.528 216.934 872.777 214.332 884.602 214.332C896.427 214.332 906.676 216.934 915.348 222.137C924.02 227.34 930.721 234.646 935.451 244.053C940.233 253.461 942.625 264.419 942.625 276.928C942.625 289.436 940.233 300.368 935.451 309.723C930.721 319.078 924.02 326.357 915.348 331.56C906.676 336.763 896.427 339.365 884.602 339.365ZM884.76 316.503C891.172 316.503 896.532 314.742 900.842 311.221C905.152 307.647 908.358 302.864 910.46 296.873C912.615 290.881 913.692 284.207 913.692 276.849C913.692 269.438 912.615 262.737 910.46 256.746C908.358 250.702 905.152 245.893 900.842 242.319C896.532 238.745 891.172 236.958 884.76 236.958C878.19 236.958 872.724 238.745 868.362 242.319C864.052 245.893 860.82 250.702 858.665 256.746C856.563 262.737 855.512 269.438 855.512 276.849C855.512 284.207 856.563 290.881 858.665 296.873C860.82 302.864 864.052 307.647 868.362 311.221C872.724 314.742 878.19 316.503 884.76 316.503ZM1019.67 339.365C1007.58 339.365 997.199 336.711 988.527 331.403C979.907 326.094 973.259 318.763 968.581 309.408C963.956 300 961.644 289.173 961.644 276.928C961.644 264.629 964.009 253.776 968.739 244.369C973.469 234.908 980.144 227.55 988.763 222.295C997.435 216.987 1007.68 214.332 1019.51 214.332C1029.34 214.332 1038.04 216.146 1045.6 219.772C1053.22 223.346 1059.29 228.418 1063.81 234.987C1068.33 241.504 1070.91 249.125 1071.54 257.849H1044.26C1043.16 252.016 1040.53 247.154 1036.38 243.265C1032.28 239.323 1026.79 237.352 1019.9 237.352C1014.07 237.352 1008.94 238.929 1004.53 242.082C1000.12 245.183 996.673 249.651 994.203 255.484C991.785 261.318 990.576 268.308 990.576 276.455C990.576 284.706 991.785 291.801 994.203 297.74C996.62 303.626 1000.01 308.173 1004.37 311.379C1008.79 314.532 1013.96 316.109 1019.9 316.109C1024.11 316.109 1027.87 315.32 1031.18 313.744C1034.54 312.114 1037.35 309.776 1039.61 306.727C1041.87 303.679 1043.42 299.974 1044.26 295.612H1071.54C1070.86 304.178 1068.33 311.773 1063.97 318.395C1059.61 324.964 1053.67 330.115 1046.16 333.847C1038.64 337.526 1029.81 339.365 1019.67 339.365ZM1094.97 337V215.909H1123.51V337H1094.97ZM1109.32 198.723C1104.8 198.723 1100.91 197.225 1097.65 194.229C1094.4 191.181 1092.77 187.528 1092.77 183.271C1092.77 178.962 1094.4 175.309 1097.65 172.313C1100.91 169.265 1104.8 167.741 1109.32 167.741C1113.89 167.741 1117.78 169.265 1120.99 172.313C1124.25 175.309 1125.88 178.962 1125.88 183.271C1125.88 187.528 1124.25 191.181 1120.99 194.229C1117.78 197.225 1113.89 198.723 1109.32 198.723ZM1213.33 215.909V237.983H1143.71V215.909H1213.33ZM1160.9 186.898H1189.44V300.578C1189.44 304.415 1190.02 307.358 1191.17 309.408C1192.38 311.405 1193.96 312.771 1195.9 313.507C1197.85 314.243 1200 314.611 1202.37 314.611C1204.15 314.611 1205.78 314.479 1207.25 314.217C1208.78 313.954 1209.94 313.717 1210.72 313.507L1215.53 335.817C1214.01 336.343 1211.83 336.921 1208.99 337.552C1206.2 338.183 1202.79 338.55 1198.74 338.656C1191.59 338.866 1185.15 337.788 1179.43 335.423C1173.7 333.006 1169.15 329.274 1165.79 324.229C1162.48 319.183 1160.85 312.876 1160.9 305.308V186.898ZM1254.93 382.409C1251.04 382.409 1247.44 382.094 1244.13 381.463C1240.87 380.885 1238.27 380.202 1236.33 379.413L1242.95 357.182C1247.1 358.391 1250.8 358.969 1254.06 358.916C1257.32 358.864 1260.19 357.839 1262.66 355.842C1265.18 353.897 1267.31 350.638 1269.04 346.066L1271.49 339.523L1227.57 215.909H1257.85L1285.76 307.358H1287.02L1315 215.909H1345.35L1296.87 351.663C1294.61 358.075 1291.62 363.567 1287.88 368.14C1284.15 372.765 1279.58 376.286 1274.17 378.704C1268.81 381.174 1262.39 382.409 1254.93 382.409Z" fill="#242121"/>
</g>
<defs>
<clipPath id="clip0_2_6">
<rect width="1427" height="512" fill="white"/>
</clipPath>
</defs>
</svg>
